solid CATIA STL
  facet normal  0.000000e+000  0.000000e+000  1.000000e+000
    outer loop
      vertex -9.567086e-001  2.309699e+000  1.500000e+000
      vertex -1.767767e+000  1.767767e+000  1.500000e+000
      vertex -4.283528e-001  1.876736e+000  1.500000e+000
    endloop
  endfacet
  facet normal  0.000000e+000  0.000000e+000  1.000000e+000
    outer loop
      vertex -4.592425e-016 -2.500000e+000  1.500000e+000
      vertex  1.000000e+001 -2.500000e+000  1.500000e+000
      vertex  9.571648e+000 -1.876736e+000  1.500000e+000
    endloop
  endfacet
  facet normal  0.000000e+000  0.000000e+000  1.000000e+000
    outer loop
      vertex -4.592425e-016 -2.500000e+000  1.500000e+000
      vertex  9.571648e+000 -1.876736e+000  1.500000e+000
      vertex  4.283528e-001 -1.876736e+000  1.500000e+000
    endloop
  endfacet
  facet normal  0.000000e+000  0.000000e+000  1.000000e+000
    outer loop
      vertex -4.592425e-016 -2.500000e+000  1.500000e+000
      vertex  4.283528e-001 -1.876736e+000  1.500000e+000
      vertex -4.283528e-001 -1.876736e+000  1.500000e+000
    endloop
  endfacet
  facet normal  0.000000e+000  0.000000e+000  1.000000e+000
    outer loop
      vertex -4.592425e-016 -2.500000e+000  1.500000e+000
      vertex -4.283528e-001 -1.876736e+000  1.500000e+000
      vertex -9.567086e-001 -2.309699e+000  1.500000e+000
    endloop
  endfacet
  facet normal  0.000000e+000  -0.000000e+000  1.000000e+000
    outer loop
      vertex  9.571648e+000 -1.876736e+000  1.500000e+000
      vertex  1.000000e+001 -2.500000e+000  1.500000e+000
      vertex  1.042835e+001 -1.876736e+000  1.500000e+000
    endloop
  endfacet
  facet normal  0.000000e+000  0.000000e+000  1.000000e+000
    outer loop
      vertex  1.042835e+001 -1.876736e+000  1.500000e+000
      vertex  1.000000e+001 -2.500000e+000  1.500000e+000
      vertex  1.095671e+001 -2.309699e+000  1.500000e+000
    endloop
  endfacet
  facet normal  0.000000e+000  -0.000000e+000  1.000000e+000
    outer loop
      vertex  1.042835e+001 -1.876736e+000  1.500000e+000
      vertex  1.095671e+001 -2.309699e+000  1.500000e+000
      vertex  1.176777e+001 -1.767767e+000  1.500000e+000
    endloop
  endfacet
  facet normal  0.000000e+000  0.000000e+000  1.000000e+000
    outer loop
      vertex  1.120022e+001  1.505026e+000  1.500000e+000
      vertex  1.176777e+001  1.767767e+000  1.500000e+000
      vertex  1.042835e+001  1.876736e+000  1.500000e+000
    endloop
  endfacet
  facet normal  -0.000000e+000  0.000000e+000  1.000000e+000
    outer loop
      vertex  1.042835e+001  1.876736e+000  1.500000e+000
      vertex  1.176777e+001  1.767767e+000  1.500000e+000
      vertex  1.095671e+001  2.309699e+000  1.500000e+000
    endloop
  endfacet
  facet normal  0.000000e+000  0.000000e+000  1.000000e+000
    outer loop
      vertex  1.042835e+001  1.876736e+000  1.500000e+000
      vertex  1.095671e+001  2.309699e+000  1.500000e+000
      vertex  9.571648e+000  1.876736e+000  1.500000e+000
    endloop
  endfacet
  facet normal  0.000000e+000  0.000000e+000  1.000000e+000
    outer loop
      vertex  9.571648e+000  1.876736e+000  1.500000e+000
      vertex  1.095671e+001  2.309699e+000  1.500000e+000
      vertex  1.000000e+001  2.500000e+000  1.500000e+000
    endloop
  endfacet
  facet normal  0.000000e+000  0.000000e+000  1.000000e+000
    outer loop
      vertex  9.571648e+000  1.876736e+000  1.500000e+000
      vertex  1.000000e+001  2.500000e+000  1.500000e+000
      vertex  4.283528e-001  1.876736e+000  1.500000e+000
    endloop
  endfacet
  facet normal  0.000000e+000  0.000000e+000  1.000000e+000
    outer loop
      vertex  4.283528e-001  1.876736e+000  1.500000e+000
      vertex  1.000000e+001  2.500000e+000  1.500000e+000
      vertex -4.283528e-001  1.876736e+000  1.500000e+000
    endloop
  endfacet
  facet normal  0.000000e+000  0.000000e+000  1.000000e+000
    outer loop
      vertex -4.283528e-001  1.876736e+000  1.500000e+000
      vertex  1.000000e+001  2.500000e+000  1.500000e+000
      vertex  1.530808e-016  2.500000e+000  1.500000e+000
    endloop
  endfacet
  facet normal  0.000000e+000  0.000000e+000  1.000000e+000
    outer loop
      vertex -4.283528e-001  1.876736e+000  1.500000e+000
      vertex  1.530808e-016  2.500000e+000  1.500000e+000
      vertex -9.567086e-001  2.309699e+000  1.500000e+000
    endloop
  endfacet
  facet normal  0.000000e+000  0.000000e+000  1.000000e+000
    outer loop
      vertex -9.567086e-001 -2.309699e+000  1.500000e+000
      vertex -4.283528e-001 -1.876736e+000  1.500000e+000
      vertex -1.767767e+000 -1.767767e+000  1.500000e+000
    endloop
  endfacet
  facet normal  -0.000000e+000  0.000000e+000  1.000000e+000
    outer loop
      vertex -1.767767e+000 -1.767767e+000  1.500000e+000
      vertex -4.283528e-001 -1.876736e+000  1.500000e+000
      vertex -1.200218e+000 -1.505026e+000  1.500000e+000
    endloop
  endfacet
  facet normal  0.000000e+000  0.000000e+000  1.000000e+000
    outer loop
      vertex -1.767767e+000 -1.767767e+000  1.500000e+000
      vertex -1.200218e+000 -1.505026e+000  1.500000e+000
      vertex -2.309699e+000 -9.567086e-001  1.500000e+000
    endloop
  endfacet
  facet normal  -0.000000e+000  0.000000e+000  1.000000e+000
    outer loop
      vertex -2.309699e+000 -9.567086e-001  1.500000e+000
      vertex -1.200218e+000 -1.505026e+000  1.500000e+000
      vertex -1.734365e+000 -8.352262e-001  1.500000e+000
    endloop
  endfacet
  facet normal  0.000000e+000  0.000000e+000  1.000000e+000
    outer loop
      vertex -2.309699e+000 -9.567086e-001  1.500000e+000
      vertex -1.734365e+000 -8.352262e-001  1.500000e+000
      vertex -2.500000e+000  3.061617e-016  1.500000e+000
    endloop
  endfacet
  facet normal  0.000000e+000  0.000000e+000  1.000000e+000
    outer loop
      vertex -2.500000e+000  3.061617e-016  1.500000e+000
      vertex -1.734365e+000 -8.352262e-001  1.500000e+000
      vertex -1.925000e+000 -1.589616e-015  1.500000e+000
    endloop
  endfacet
  facet normal  0.000000e+000  0.000000e+000  1.000000e+000
    outer loop
      vertex -2.500000e+000  3.061617e-016  1.500000e+000
      vertex -1.925000e+000 -1.589616e-015  1.500000e+000
      vertex -2.309699e+000  9.567086e-001  1.500000e+000
    endloop
  endfacet
  facet normal  0.000000e+000  0.000000e+000  1.000000e+000
    outer loop
      vertex -2.309699e+000  9.567086e-001  1.500000e+000
      vertex -1.925000e+000 -1.589616e-015  1.500000e+000
      vertex -1.734365e+000  8.352262e-001  1.500000e+000
    endloop
  endfacet
  facet normal  0.000000e+000  0.000000e+000  1.000000e+000
    outer loop
      vertex -2.309699e+000  9.567086e-001  1.500000e+000
      vertex -1.734365e+000  8.352262e-001  1.500000e+000
      vertex -1.767767e+000  1.767767e+000  1.500000e+000
    endloop
  endfacet
  facet normal  0.000000e+000  0.000000e+000  1.000000e+000
    outer loop
      vertex -1.767767e+000  1.767767e+000  1.500000e+000
      vertex -1.734365e+000  8.352262e-001  1.500000e+000
      vertex -1.200218e+000  1.505026e+000  1.500000e+000
    endloop
  endfacet
  facet normal  0.000000e+000  -0.000000e+000  1.000000e+000
    outer loop
      vertex -1.767767e+000  1.767767e+000  1.500000e+000
      vertex -1.200218e+000  1.505026e+000  1.500000e+000
      vertex -4.283528e-001  1.876736e+000  1.500000e+000
    endloop
  endfacet
  facet normal  -0.000000e+000  0.000000e+000  9.999999e-001
    outer loop
      vertex  9.571648e+000  1.876736e+000  1.500000e+000
      vertex  4.283528e-001  1.876736e+000  1.500000e+000
      vertex  8.799782e+000  1.505026e+000  1.500000e+000
    endloop
  endfacet
  facet normal  0.000000e+000  0.000000e+000  1.000000e+000
    outer loop
      vertex  8.799782e+000  1.505026e+000  1.500000e+000
      vertex  4.283528e-001  1.876736e+000  1.500000e+000
      vertex  1.200218e+000  1.505026e+000  1.500000e+000
    endloop
  endfacet
  facet normal  -0.000000e+000  0.000000e+000  1.000000e+000
    outer loop
      vertex  8.799782e+000  1.505026e+000  1.500000e+000
      vertex  1.200218e+000  1.505026e+000  1.500000e+000
      vertex  8.265635e+000  8.352262e-001  1.500000e+000
    endloop
  endfacet
  facet normal  0.000000e+000  0.000000e+000  1.000000e+000
    outer loop
      vertex  8.265635e+000  8.352262e-001  1.500000e+000
      vertex  1.200218e+000  1.505026e+000  1.500000e+000
      vertex  1.734365e+000  8.352262e-001  1.500000e+000
    endloop
  endfacet
  facet normal  -0.000000e+000  0.000000e+000  1.000000e+000
    outer loop
      vertex  8.265635e+000  8.352262e-001  1.500000e+000
      vertex  1.734365e+000  8.352262e-001  1.500000e+000
      vertex  8.075000e+000  1.459634e-015  1.500000e+000
    endloop
  endfacet
  facet normal  0.000000e+000  0.000000e+000  1.000000e+000
    outer loop
      vertex  8.075000e+000  1.459634e-015  1.500000e+000
      vertex  1.734365e+000  8.352262e-001  1.500000e+000
      vertex  1.925000e+000 -5.871061e-016  1.500000e+000
    endloop
  endfacet
  facet normal  -0.000000e+000  0.000000e+000  1.000000e+000
    outer loop
      vertex  8.075000e+000  1.459634e-015  1.500000e+000
      vertex  1.925000e+000 -5.871061e-016  1.500000e+000
      vertex  8.265635e+000 -8.352262e-001  1.500000e+000
    endloop
  endfacet
  facet normal  0.000000e+000  0.000000e+000  1.000000e+000
    outer loop
      vertex  8.265635e+000 -8.352262e-001  1.500000e+000
      vertex  1.925000e+000 -5.871061e-016  1.500000e+000
      vertex  1.734365e+000 -8.352262e-001  1.500000e+000
    endloop
  endfacet
  facet normal  -0.000000e+000  0.000000e+000  1.000000e+000
    outer loop
      vertex  8.265635e+000 -8.352262e-001  1.500000e+000
      vertex  1.734365e+000 -8.352262e-001  1.500000e+000
      vertex  8.799782e+000 -1.505026e+000  1.500000e+000
    endloop
  endfacet
  facet normal  0.000000e+000  0.000000e+000  1.000000e+000
    outer loop
      vertex  8.799782e+000 -1.505026e+000  1.500000e+000
      vertex  1.734365e+000 -8.352262e-001  1.500000e+000
      vertex  1.200218e+000 -1.505026e+000  1.500000e+000
    endloop
  endfacet
  facet normal  -0.000000e+000  0.000000e+000  1.000000e+000
    outer loop
      vertex  8.799782e+000 -1.505026e+000  1.500000e+000
      vertex  1.200218e+000 -1.505026e+000  1.500000e+000
      vertex  9.571648e+000 -1.876736e+000  1.500000e+000
    endloop
  endfacet
  facet normal  0.000000e+000  0.000000e+000  9.999999e-001
    outer loop
      vertex  9.571648e+000 -1.876736e+000  1.500000e+000
      vertex  1.200218e+000 -1.505026e+000  1.500000e+000
      vertex  4.283528e-001 -1.876736e+000  1.500000e+000
    endloop
  endfacet
  facet normal  -0.000000e+000  0.000000e+000  1.000000e+000
    outer loop
      vertex  1.176777e+001  1.767767e+000  1.500000e+000
      vertex  1.120022e+001  1.505026e+000  1.500000e+000
      vertex  1.230970e+001  9.567086e-001  1.500000e+000
    endloop
  endfacet
  facet normal  0.000000e+000  0.000000e+000  1.000000e+000
    outer loop
      vertex  1.230970e+001  9.567086e-001  1.500000e+000
      vertex  1.120022e+001  1.505026e+000  1.500000e+000
      vertex  1.173437e+001  8.352262e-001  1.500000e+000
    endloop
  endfacet
  facet normal  -0.000000e+000  0.000000e+000  1.000000e+000
    outer loop
      vertex  1.230970e+001  9.567086e-001  1.500000e+000
      vertex  1.173437e+001  8.352262e-001  1.500000e+000
      vertex  1.250000e+001 -6.123234e-016  1.500000e+000
    endloop
  endfacet
  facet normal  0.000000e+000  0.000000e+000  1.000000e+000
    outer loop
      vertex  1.250000e+001 -6.123234e-016  1.500000e+000
      vertex  1.173437e+001  8.352262e-001  1.500000e+000
      vertex  1.192500e+001 -1.024716e-016  1.500000e+000
    endloop
  endfacet
  facet normal  0.000000e+000  0.000000e+000  1.000000e+000
    outer loop
      vertex  1.250000e+001 -6.123234e-016  1.500000e+000
      vertex  1.192500e+001 -1.024716e-016  1.500000e+000
      vertex  1.230970e+001 -9.567086e-001  1.500000e+000
    endloop
  endfacet
  facet normal  0.000000e+000  0.000000e+000  1.000000e+000
    outer loop
      vertex  1.230970e+001 -9.567086e-001  1.500000e+000
      vertex  1.192500e+001 -1.024716e-016  1.500000e+000
      vertex  1.173437e+001 -8.352262e-001  1.500000e+000
    endloop
  endfacet
  facet normal  0.000000e+000  0.000000e+000  1.000000e+000
    outer loop
      vertex  1.230970e+001 -9.567086e-001  1.500000e+000
      vertex  1.173437e+001 -8.352262e-001  1.500000e+000
      vertex  1.176777e+001 -1.767767e+000  1.500000e+000
    endloop
  endfacet
  facet normal  0.000000e+000  0.000000e+000  1.000000e+000
    outer loop
      vertex  1.176777e+001 -1.767767e+000  1.500000e+000
      vertex  1.173437e+001 -8.352262e-001  1.500000e+000
      vertex  1.120022e+001 -1.505026e+000  1.500000e+000
    endloop
  endfacet
  facet normal  0.000000e+000  0.000000e+000  1.000000e+000
    outer loop
      vertex  1.176777e+001 -1.767767e+000  1.500000e+000
      vertex  1.120022e+001 -1.505026e+000  1.500000e+000
      vertex  1.042835e+001 -1.876736e+000  1.500000e+000
    endloop
  endfacet
  facet normal  5.877852e-001 -8.090169e-001  0.000000e+000
    outer loop
      vertex -2.858407e-001  8.797273e-001  0.000000e+000
      vertex -7.483407e-001  5.437014e-001  5.000000e-001
      vertex -7.483407e-001  5.437014e-001  0.000000e+000
    endloop
  endfacet
  facet normal  9.510565e-001 -3.090170e-001  0.000000e+000
    outer loop
      vertex -7.483407e-001  5.437014e-001  0.000000e+000
      vertex -7.483407e-001  5.437014e-001  5.000000e-001
      vertex -9.250000e-001  1.132798e-016  5.000000e-001
    endloop
  endfacet
  facet normal  9.510565e-001 -3.090170e-001  0.000000e+000
    outer loop
      vertex -7.483407e-001  5.437014e-001  0.000000e+000
      vertex -9.250000e-001  1.132798e-016  5.000000e-001
      vertex -9.250000e-001  1.132798e-016  0.000000e+000
    endloop
  endfacet
  facet normal  5.877852e-001 -8.090169e-001  0.000000e+000
    outer loop
      vertex -7.483407e-001  5.437014e-001  5.000000e-001
      vertex -2.858407e-001  8.797273e-001  0.000000e+000
      vertex -2.858407e-001  8.797273e-001  5.000000e-001
    endloop
  endfacet
  facet normal  0.000000e+000 -1.000000e+000  0.000000e+000
    outer loop
      vertex -2.858407e-001  8.797273e-001  5.000000e-001
      vertex -2.858407e-001  8.797273e-001  0.000000e+000
      vertex  2.858407e-001  8.797273e-001  0.000000e+000
    endloop
  endfacet
  facet normal  0.000000e+000 -1.000000e+000  0.000000e+000
    outer loop
      vertex -2.858407e-001  8.797273e-001  5.000000e-001
      vertex  2.858407e-001  8.797273e-001  0.000000e+000
      vertex  2.858407e-001  8.797273e-001  5.000000e-001
    endloop
  endfacet
  facet normal -5.877852e-001 -8.090169e-001  -0.000000e+000
    outer loop
      vertex  2.858407e-001  8.797273e-001  5.000000e-001
      vertex  2.858407e-001  8.797273e-001  0.000000e+000
      vertex  7.483407e-001  5.437014e-001  0.000000e+000
    endloop
  endfacet
  facet normal -5.877852e-001 -8.090169e-001  0.000000e+000
    outer loop
      vertex  2.858407e-001  8.797273e-001  5.000000e-001
      vertex  7.483407e-001  5.437014e-001  0.000000e+000
      vertex  7.483407e-001  5.437014e-001  5.000000e-001
    endloop
  endfacet
  facet normal -9.510565e-001 -3.090170e-001  -0.000000e+000
    outer loop
      vertex  7.483407e-001  5.437014e-001  5.000000e-001
      vertex  7.483407e-001  5.437014e-001  0.000000e+000
      vertex  9.250000e-001  0.000000e+000  0.000000e+000
    endloop
  endfacet
  facet normal -9.510565e-001 -3.090170e-001 -6.477768e-016
    outer loop
      vertex  7.483407e-001  5.437014e-001  5.000000e-001
      vertex  9.250000e-001  0.000000e+000  0.000000e+000
      vertex  9.250000e-001 -1.048125e-015  5.000000e-001
    endloop
  endfacet
  facet normal -5.877852e-001  8.090169e-001  0.000000e+000
    outer loop
      vertex  2.858407e-001 -8.797273e-001  0.000000e+000
      vertex  7.483407e-001 -5.437014e-001  5.000000e-001
      vertex  7.483407e-001 -5.437014e-001  0.000000e+000
    endloop
  endfacet
  facet normal -9.510565e-001  3.090170e-001  0.000000e+000
    outer loop
      vertex  7.483407e-001 -5.437014e-001  0.000000e+000
      vertex  7.483407e-001 -5.437014e-001  5.000000e-001
      vertex  9.250000e-001 -1.048125e-015  5.000000e-001
    endloop
  endfacet
  facet normal -9.510565e-001  3.090170e-001  6.477768e-016
    outer loop
      vertex  7.483407e-001 -5.437014e-001  0.000000e+000
      vertex  9.250000e-001 -1.048125e-015  5.000000e-001
      vertex  9.250000e-001  0.000000e+000  0.000000e+000
    endloop
  endfacet
  facet normal -5.877852e-001  8.090169e-001  0.000000e+000
    outer loop
      vertex  7.483407e-001 -5.437014e-001  5.000000e-001
      vertex  2.858407e-001 -8.797273e-001  0.000000e+000
      vertex  2.858407e-001 -8.797273e-001  5.000000e-001
    endloop
  endfacet
  facet normal  0.000000e+000  1.000000e+000  0.000000e+000
    outer loop
      vertex  2.858407e-001 -8.797273e-001  5.000000e-001
      vertex  2.858407e-001 -8.797273e-001  0.000000e+000
      vertex -2.858407e-001 -8.797273e-001  0.000000e+000
    endloop
  endfacet
  facet normal  0.000000e+000  1.000000e+000  0.000000e+000
    outer loop
      vertex  2.858407e-001 -8.797273e-001  5.000000e-001
      vertex -2.858407e-001 -8.797273e-001  0.000000e+000
      vertex -2.858407e-001 -8.797273e-001  5.000000e-001
    endloop
  endfacet
  facet normal  5.877852e-001  8.090169e-001  0.000000e+000
    outer loop
      vertex -2.858407e-001 -8.797273e-001  5.000000e-001
      vertex -2.858407e-001 -8.797273e-001  0.000000e+000
      vertex -7.483407e-001 -5.437014e-001  0.000000e+000
    endloop
  endfacet
  facet normal  5.877852e-001  8.090169e-001  -0.000000e+000
    outer loop
      vertex -2.858407e-001 -8.797273e-001  5.000000e-001
      vertex -7.483407e-001 -5.437014e-001  0.000000e+000
      vertex -7.483407e-001 -5.437014e-001  5.000000e-001
    endloop
  endfacet
  facet normal  9.510565e-001  3.090170e-001  0.000000e+000
    outer loop
      vertex -7.483407e-001 -5.437014e-001  5.000000e-001
      vertex -7.483407e-001 -5.437014e-001  0.000000e+000
      vertex -9.250000e-001  1.132798e-016  0.000000e+000
    endloop
  endfacet
  facet normal  9.510565e-001  3.090170e-001  -0.000000e+000
    outer loop
      vertex -7.483407e-001 -5.437014e-001  5.000000e-001
      vertex -9.250000e-001  1.132798e-016  0.000000e+000
      vertex -9.250000e-001  1.132798e-016  5.000000e-001
    endloop
  endfacet
  facet normal -6.631997e-001  2.154867e-001  7.167507e-001
    outer loop
      vertex  7.483407e-001 -5.437014e-001  5.000000e-001
      vertex  1.734365e+000 -8.352262e-001  1.500000e+000
      vertex  9.250000e-001 -1.048125e-015  5.000000e-001
    endloop
  endfacet
  facet normal -6.980737e-001  1.593307e-001  6.980737e-001
    outer loop
      vertex  1.734365e+000 -8.352262e-001  1.500000e+000
      vertex  1.925000e+000 -5.871061e-016  1.500000e+000
      vertex  9.250000e-001 -1.048125e-015  5.000000e-001
    endloop
  endfacet
  facet normal  6.980737e-001  1.593307e-001  6.980737e-001
    outer loop
      vertex -1.925000e+000 -1.589616e-015  1.500000e+000
      vertex -1.734365e+000 -8.352262e-001  1.500000e+000
      vertex -9.250000e-001  1.132798e-016  5.000000e-001
    endloop
  endfacet
  facet normal  6.631997e-001  2.154867e-001  7.167507e-001
    outer loop
      vertex -1.734365e+000 -8.352262e-001  1.500000e+000
      vertex -7.483407e-001 -5.437014e-001  5.000000e-001
      vertex -9.250000e-001  1.132798e-016  5.000000e-001
    endloop
  endfacet
  facet normal  5.660728e-001  4.514280e-001  6.897640e-001
    outer loop
      vertex -1.734365e+000 -8.352262e-001  1.500000e+000
      vertex -1.200218e+000 -1.505026e+000  1.500000e+000
      vertex -7.483407e-001 -5.437014e-001  5.000000e-001
    endloop
  endfacet
  facet normal  3.129814e-001  6.499125e-001  6.925722e-001
    outer loop
      vertex -1.200218e+000 -1.505026e+000  1.500000e+000
      vertex -4.283528e-001 -1.876736e+000  1.500000e+000
      vertex -2.858407e-001 -8.797273e-001  5.000000e-001
    endloop
  endfacet
  facet normal  4.067211e-001  5.598034e-001  7.219405e-001
    outer loop
      vertex -7.483407e-001 -5.437014e-001  5.000000e-001
      vertex -1.200218e+000 -1.505026e+000  1.500000e+000
      vertex -2.858407e-001 -8.797273e-001  5.000000e-001
    endloop
  endfacet
  facet normal -3.129814e-001  6.499125e-001  6.925722e-001
    outer loop
      vertex  4.283528e-001 -1.876736e+000  1.500000e+000
      vertex  1.200218e+000 -1.505026e+000  1.500000e+000
      vertex  2.858407e-001 -8.797273e-001  5.000000e-001
    endloop
  endfacet
  facet normal  0.000000e+000  7.081650e-001  7.060469e-001
    outer loop
      vertex -2.858407e-001 -8.797273e-001  5.000000e-001
      vertex  4.283528e-001 -1.876736e+000  1.500000e+000
      vertex  2.858407e-001 -8.797273e-001  5.000000e-001
    endloop
  endfacet
  facet normal  0.000000e+000  7.081650e-001  7.060469e-001
    outer loop
      vertex -4.283528e-001 -1.876736e+000  1.500000e+000
      vertex  4.283528e-001 -1.876736e+000  1.500000e+000
      vertex -2.858407e-001 -8.797273e-001  5.000000e-001
    endloop
  endfacet
  facet normal -5.660728e-001  4.514280e-001  6.897640e-001
    outer loop
      vertex  1.200218e+000 -1.505026e+000  1.500000e+000
      vertex  1.734365e+000 -8.352262e-001  1.500000e+000
      vertex  7.483407e-001 -5.437014e-001  5.000000e-001
    endloop
  endfacet
  facet normal -4.067211e-001  5.598034e-001  7.219405e-001
    outer loop
      vertex  2.858407e-001 -8.797273e-001  5.000000e-001
      vertex  1.200218e+000 -1.505026e+000  1.500000e+000
      vertex  7.483407e-001 -5.437014e-001  5.000000e-001
    endloop
  endfacet
  facet normal  6.631997e-001 -2.154867e-001  7.167507e-001
    outer loop
      vertex -7.483407e-001  5.437014e-001  5.000000e-001
      vertex -1.734365e+000  8.352262e-001  1.500000e+000
      vertex -9.250000e-001  1.132798e-016  5.000000e-001
    endloop
  endfacet
  facet normal  6.980737e-001 -1.593307e-001  6.980737e-001
    outer loop
      vertex -1.734365e+000  8.352262e-001  1.500000e+000
      vertex -1.925000e+000 -1.589616e-015  1.500000e+000
      vertex -9.250000e-001  1.132798e-016  5.000000e-001
    endloop
  endfacet
  facet normal -6.980737e-001 -1.593307e-001  6.980737e-001
    outer loop
      vertex  1.925000e+000 -5.871061e-016  1.500000e+000
      vertex  1.734365e+000  8.352262e-001  1.500000e+000
      vertex  9.250000e-001 -1.048125e-015  5.000000e-001
    endloop
  endfacet
  facet normal -6.631997e-001 -2.154867e-001  7.167507e-001
    outer loop
      vertex  1.734365e+000  8.352262e-001  1.500000e+000
      vertex  7.483407e-001  5.437014e-001  5.000000e-001
      vertex  9.250000e-001 -1.048125e-015  5.000000e-001
    endloop
  endfacet
  facet normal -5.660728e-001 -4.514280e-001  6.897640e-001
    outer loop
      vertex  1.734365e+000  8.352262e-001  1.500000e+000
      vertex  1.200218e+000  1.505026e+000  1.500000e+000
      vertex  7.483407e-001  5.437014e-001  5.000000e-001
    endloop
  endfacet
  facet normal -3.129814e-001 -6.499125e-001  6.925722e-001
    outer loop
      vertex  1.200218e+000  1.505026e+000  1.500000e+000
      vertex  4.283528e-001  1.876736e+000  1.500000e+000
      vertex  2.858407e-001  8.797273e-001  5.000000e-001
    endloop
  endfacet
  facet normal -4.067211e-001 -5.598034e-001  7.219405e-001
    outer loop
      vertex  7.483407e-001  5.437014e-001  5.000000e-001
      vertex  1.200218e+000  1.505026e+000  1.500000e+000
      vertex  2.858407e-001  8.797273e-001  5.000000e-001
    endloop
  endfacet
  facet normal  3.129814e-001 -6.499125e-001  6.925722e-001
    outer loop
      vertex -4.283528e-001  1.876736e+000  1.500000e+000
      vertex -1.200218e+000  1.505026e+000  1.500000e+000
      vertex -2.858407e-001  8.797273e-001  5.000000e-001
    endloop
  endfacet
  facet normal  0.000000e+000 -7.081650e-001  7.060469e-001
    outer loop
      vertex  2.858407e-001  8.797273e-001  5.000000e-001
      vertex -4.283528e-001  1.876736e+000  1.500000e+000
      vertex -2.858407e-001  8.797273e-001  5.000000e-001
    endloop
  endfacet
  facet normal  0.000000e+000 -7.081650e-001  7.060469e-001
    outer loop
      vertex  4.283528e-001  1.876736e+000  1.500000e+000
      vertex -4.283528e-001  1.876736e+000  1.500000e+000
      vertex  2.858407e-001  8.797273e-001  5.000000e-001
    endloop
  endfacet
  facet normal  5.660728e-001 -4.514280e-001  6.897640e-001
    outer loop
      vertex -1.200218e+000  1.505026e+000  1.500000e+000
      vertex -1.734365e+000  8.352262e-001  1.500000e+000
      vertex -7.483407e-001  5.437014e-001  5.000000e-001
    endloop
  endfacet
  facet normal  4.067211e-001 -5.598034e-001  7.219405e-001
    outer loop
      vertex -2.858407e-001  8.797273e-001  5.000000e-001
      vertex -1.200218e+000  1.505026e+000  1.500000e+000
      vertex -7.483407e-001  5.437014e-001  5.000000e-001
    endloop
  endfacet
  facet normal  5.877856e-001 -8.090167e-001  0.000000e+000
    outer loop
      vertex  9.714159e+000  8.797273e-001  0.000000e+000
      vertex  9.251659e+000  5.437014e-001  5.000000e-001
      vertex  9.251659e+000  5.437014e-001  0.000000e+000
    endloop
  endfacet
  facet normal  9.510563e-001 -3.090175e-001  0.000000e+000
    outer loop
      vertex  9.251659e+000  5.437014e-001  0.000000e+000
      vertex  9.251659e+000  5.437014e-001  5.000000e-001
      vertex  9.075000e+000  5.240624e-016  5.000000e-001
    endloop
  endfacet
  facet normal  9.510563e-001 -3.090175e-001  2.538780e-016
    outer loop
      vertex  9.251659e+000  5.437014e-001  0.000000e+000
      vertex  9.075000e+000  5.240624e-016  5.000000e-001
      vertex  9.075000e+000  1.132798e-016  0.000000e+000
    endloop
  endfacet
  facet normal  5.877856e-001 -8.090167e-001  0.000000e+000
    outer loop
      vertex  9.251659e+000  5.437014e-001  5.000000e-001
      vertex  9.714159e+000  8.797273e-001  0.000000e+000
      vertex  9.714159e+000  8.797273e-001  5.000000e-001
    endloop
  endfacet
  facet normal  0.000000e+000 -1.000000e+000  0.000000e+000
    outer loop
      vertex  9.714159e+000  8.797273e-001  5.000000e-001
      vertex  9.714159e+000  8.797273e-001  0.000000e+000
      vertex  1.028584e+001  8.797273e-001  0.000000e+000
    endloop
  endfacet
  facet normal  0.000000e+000 -1.000000e+000  0.000000e+000
    outer loop
      vertex  9.714159e+000  8.797273e-001  5.000000e-001
      vertex  1.028584e+001  8.797273e-001  0.000000e+000
      vertex  1.028584e+001  8.797273e-001  5.000000e-001
    endloop
  endfacet
  facet normal -5.877856e-001 -8.090167e-001  -0.000000e+000
    outer loop
      vertex  1.028584e+001  8.797273e-001  5.000000e-001
      vertex  1.028584e+001  8.797273e-001  0.000000e+000
      vertex  1.074834e+001  5.437014e-001  0.000000e+000
    endloop
  endfacet
  facet normal -5.877856e-001 -8.090167e-001  0.000000e+000
    outer loop
      vertex  1.028584e+001  8.797273e-001  5.000000e-001
      vertex  1.074834e+001  5.437014e-001  0.000000e+000
      vertex  1.074834e+001  5.437014e-001  5.000000e-001
    endloop
  endfacet
  facet normal -9.510563e-001 -3.090175e-001  -0.000000e+000
    outer loop
      vertex  1.074834e+001  5.437014e-001  5.000000e-001
      vertex  1.074834e+001  5.437014e-001  0.000000e+000
      vertex  1.092500e+001  0.000000e+000  0.000000e+000
    endloop
  endfacet
  facet normal -9.510563e-001 -3.090175e-001 -6.477777e-016
    outer loop
      vertex  1.074834e+001  5.437014e-001  5.000000e-001
      vertex  1.092500e+001  0.000000e+000  0.000000e+000
      vertex  1.092500e+001 -1.048125e-015  5.000000e-001
    endloop
  endfacet
  facet normal -5.877856e-001  8.090167e-001  0.000000e+000
    outer loop
      vertex  1.028584e+001 -8.797273e-001  0.000000e+000
      vertex  1.074834e+001 -5.437014e-001  5.000000e-001
      vertex  1.074834e+001 -5.437014e-001  0.000000e+000
    endloop
  endfacet
  facet normal -9.510563e-001  3.090175e-001  0.000000e+000
    outer loop
      vertex  1.074834e+001 -5.437014e-001  0.000000e+000
      vertex  1.074834e+001 -5.437014e-001  5.000000e-001
      vertex  1.092500e+001 -1.048125e-015  5.000000e-001
    endloop
  endfacet
  facet normal -9.510563e-001  3.090175e-001  6.477777e-016
    outer loop
      vertex  1.074834e+001 -5.437014e-001  0.000000e+000
      vertex  1.092500e+001 -1.048125e-015  5.000000e-001
      vertex  1.092500e+001  0.000000e+000  0.000000e+000
    endloop
  endfacet
  facet normal -5.877856e-001  8.090167e-001  0.000000e+000
    outer loop
      vertex  1.074834e+001 -5.437014e-001  5.000000e-001
      vertex  1.028584e+001 -8.797273e-001  0.000000e+000
      vertex  1.028584e+001 -8.797273e-001  5.000000e-001
    endloop
  endfacet
  facet normal  0.000000e+000  1.000000e+000  0.000000e+000
    outer loop
      vertex  1.028584e+001 -8.797273e-001  5.000000e-001
      vertex  1.028584e+001 -8.797273e-001  0.000000e+000
      vertex  9.714159e+000 -8.797273e-001  0.000000e+000
    endloop
  endfacet
  facet normal  0.000000e+000  1.000000e+000  0.000000e+000
    outer loop
      vertex  1.028584e+001 -8.797273e-001  5.000000e-001
      vertex  9.714159e+000 -8.797273e-001  0.000000e+000
      vertex  9.714159e+000 -8.797273e-001  5.000000e-001
    endloop
  endfacet
  facet normal  5.877856e-001  8.090167e-001  0.000000e+000
    outer loop
      vertex  9.714159e+000 -8.797273e-001  5.000000e-001
      vertex  9.714159e+000 -8.797273e-001  0.000000e+000
      vertex  9.251659e+000 -5.437014e-001  0.000000e+000
    endloop
  endfacet
  facet normal  5.877856e-001  8.090167e-001  -0.000000e+000
    outer loop
      vertex  9.714159e+000 -8.797273e-001  5.000000e-001
      vertex  9.251659e+000 -5.437014e-001  0.000000e+000
      vertex  9.251659e+000 -5.437014e-001  5.000000e-001
    endloop
  endfacet
  facet normal  9.510563e-001  3.090175e-001  0.000000e+000
    outer loop
      vertex  9.251659e+000 -5.437014e-001  5.000000e-001
      vertex  9.251659e+000 -5.437014e-001  0.000000e+000
      vertex  9.075000e+000  1.132798e-016  0.000000e+000
    endloop
  endfacet
  facet normal  9.510563e-001  3.090175e-001 -2.538780e-016
    outer loop
      vertex  9.251659e+000 -5.437014e-001  5.000000e-001
      vertex  9.075000e+000  1.132798e-016  0.000000e+000
      vertex  9.075000e+000  5.240624e-016  5.000000e-001
    endloop
  endfacet
  facet normal -6.631994e-001  2.154869e-001  7.167509e-001
    outer loop
      vertex  1.074834e+001 -5.437014e-001  5.000000e-001
      vertex  1.173437e+001 -8.352262e-001  1.500000e+000
      vertex  1.092500e+001 -1.048125e-015  5.000000e-001
    endloop
  endfacet
  facet normal -6.980737e-001  1.593306e-001  6.980737e-001
    outer loop
      vertex  1.173437e+001 -8.352262e-001  1.500000e+000
      vertex  1.192500e+001 -1.024716e-016  1.500000e+000
      vertex  1.092500e+001 -1.048125e-015  5.000000e-001
    endloop
  endfacet
  facet normal  6.980737e-001  1.593306e-001  6.980737e-001
    outer loop
      vertex  8.075000e+000  1.459634e-015  1.500000e+000
      vertex  8.265635e+000 -8.352262e-001  1.500000e+000
      vertex  9.075000e+000  5.240624e-016  5.000000e-001
    endloop
  endfacet
  facet normal  6.631994e-001  2.154869e-001  7.167509e-001
    outer loop
      vertex  8.265635e+000 -8.352262e-001  1.500000e+000
      vertex  9.251659e+000 -5.437014e-001  5.000000e-001
      vertex  9.075000e+000  5.240624e-016  5.000000e-001
    endloop
  endfacet
  facet normal  5.660726e-001  4.514279e-001  6.897641e-001
    outer loop
      vertex  8.265635e+000 -8.352262e-001  1.500000e+000
      vertex  8.799782e+000 -1.505026e+000  1.500000e+000
      vertex  9.251659e+000 -5.437014e-001  5.000000e-001
    endloop
  endfacet
  facet normal  3.129812e-001  6.499128e-001  6.925722e-001
    outer loop
      vertex  8.799782e+000 -1.505026e+000  1.500000e+000
      vertex  9.571648e+000 -1.876736e+000  1.500000e+000
      vertex  9.714159e+000 -8.797273e-001  5.000000e-001
    endloop
  endfacet
  facet normal  4.067212e-001  5.598032e-001  7.219406e-001
    outer loop
      vertex  9.251659e+000 -5.437014e-001  5.000000e-001
      vertex  8.799782e+000 -1.505026e+000  1.500000e+000
      vertex  9.714159e+000 -8.797273e-001  5.000000e-001
    endloop
  endfacet
  facet normal -3.129812e-001  6.499128e-001  6.925722e-001
    outer loop
      vertex  1.042835e+001 -1.876736e+000  1.500000e+000
      vertex  1.120022e+001 -1.505026e+000  1.500000e+000
      vertex  1.028584e+001 -8.797273e-001  5.000000e-001
    endloop
  endfacet
  facet normal  0.000000e+000  7.081651e-001  7.060469e-001
    outer loop
      vertex  9.714159e+000 -8.797273e-001  5.000000e-001
      vertex  1.042835e+001 -1.876736e+000  1.500000e+000
      vertex  1.028584e+001 -8.797273e-001  5.000000e-001
    endloop
  endfacet
  facet normal  0.000000e+000  7.081650e-001  7.060469e-001
    outer loop
      vertex  9.571648e+000 -1.876736e+000  1.500000e+000
      vertex  1.042835e+001 -1.876736e+000  1.500000e+000
      vertex  9.714159e+000 -8.797273e-001  5.000000e-001
    endloop
  endfacet
  facet normal -5.660726e-001  4.514279e-001  6.897641e-001
    outer loop
      vertex  1.120022e+001 -1.505026e+000  1.500000e+000
      vertex  1.173437e+001 -8.352262e-001  1.500000e+000
      vertex  1.074834e+001 -5.437014e-001  5.000000e-001
    endloop
  endfacet
  facet normal -4.067212e-001  5.598032e-001  7.219406e-001
    outer loop
      vertex  1.028584e+001 -8.797273e-001  5.000000e-001
      vertex  1.120022e+001 -1.505026e+000  1.500000e+000
      vertex  1.074834e+001 -5.437014e-001  5.000000e-001
    endloop
  endfacet
  facet normal  6.631994e-001 -2.154869e-001  7.167509e-001
    outer loop
      vertex  9.251659e+000  5.437014e-001  5.000000e-001
      vertex  8.265635e+000  8.352262e-001  1.500000e+000
      vertex  9.075000e+000  5.240624e-016  5.000000e-001
    endloop
  endfacet
  facet normal  6.980737e-001 -1.593306e-001  6.980737e-001
    outer loop
      vertex  8.265635e+000  8.352262e-001  1.500000e+000
      vertex  8.075000e+000  1.459634e-015  1.500000e+000
      vertex  9.075000e+000  5.240624e-016  5.000000e-001
    endloop
  endfacet
  facet normal -6.980737e-001 -1.593306e-001  6.980737e-001
    outer loop
      vertex  1.192500e+001 -1.024716e-016  1.500000e+000
      vertex  1.173437e+001  8.352262e-001  1.500000e+000
      vertex  1.092500e+001 -1.048125e-015  5.000000e-001
    endloop
  endfacet
  facet normal -6.631994e-001 -2.154869e-001  7.167509e-001
    outer loop
      vertex  1.173437e+001  8.352262e-001  1.500000e+000
      vertex  1.074834e+001  5.437014e-001  5.000000e-001
      vertex  1.092500e+001 -1.048125e-015  5.000000e-001
    endloop
  endfacet
  facet normal -5.660726e-001 -4.514279e-001  6.897641e-001
    outer loop
      vertex  1.173437e+001  8.352262e-001  1.500000e+000
      vertex  1.120022e+001  1.505026e+000  1.500000e+000
      vertex  1.074834e+001  5.437014e-001  5.000000e-001
    endloop
  endfacet
  facet normal -3.129812e-001 -6.499128e-001  6.925722e-001
    outer loop
      vertex  1.120022e+001  1.505026e+000  1.500000e+000
      vertex  1.042835e+001  1.876736e+000  1.500000e+000
      vertex  1.028584e+001  8.797273e-001  5.000000e-001
    endloop
  endfacet
  facet normal -4.067212e-001 -5.598032e-001  7.219406e-001
    outer loop
      vertex  1.074834e+001  5.437014e-001  5.000000e-001
      vertex  1.120022e+001  1.505026e+000  1.500000e+000
      vertex  1.028584e+001  8.797273e-001  5.000000e-001
    endloop
  endfacet
  facet normal  3.129812e-001 -6.499128e-001  6.925722e-001
    outer loop
      vertex  9.571648e+000  1.876736e+000  1.500000e+000
      vertex  8.799782e+000  1.505026e+000  1.500000e+000
      vertex  9.714159e+000  8.797273e-001  5.000000e-001
    endloop
  endfacet
  facet normal  0.000000e+000 -7.081651e-001  7.060469e-001
    outer loop
      vertex  1.028584e+001  8.797273e-001  5.000000e-001
      vertex  9.571648e+000  1.876736e+000  1.500000e+000
      vertex  9.714159e+000  8.797273e-001  5.000000e-001
    endloop
  endfacet
  facet normal  0.000000e+000 -7.081650e-001  7.060469e-001
    outer loop
      vertex  1.042835e+001  1.876736e+000  1.500000e+000
      vertex  9.571648e+000  1.876736e+000  1.500000e+000
      vertex  1.028584e+001  8.797273e-001  5.000000e-001
    endloop
  endfacet
  facet normal  5.660726e-001 -4.514279e-001  6.897641e-001
    outer loop
      vertex  8.799782e+000  1.505026e+000  1.500000e+000
      vertex  8.265635e+000  8.352262e-001  1.500000e+000
      vertex  9.251659e+000  5.437014e-001  5.000000e-001
    endloop
  endfacet
  facet normal  4.067212e-001 -5.598032e-001  7.219406e-001
    outer loop
      vertex  9.714159e+000  8.797273e-001  5.000000e-001
      vertex  8.799782e+000  1.505026e+000  1.500000e+000
      vertex  9.251659e+000  5.437014e-001  5.000000e-001
    endloop
  endfacet
  facet normal  -0.000000e+000  0.000000e+000 -1.000000e+000
    outer loop
      vertex  1.176777e+001 -1.767767e+000  0.000000e+000
      vertex  1.095671e+001 -2.309699e+000  0.000000e+000
      vertex  1.000000e+001 -2.500000e+000  0.000000e+000
    endloop
  endfacet
  facet normal  0.000000e+000  0.000000e+000 -1.000000e+000
    outer loop
      vertex -2.309699e+000 -9.567086e-001  0.000000e+000
      vertex -2.500000e+000  3.061617e-016  0.000000e+000
      vertex -9.250000e-001  1.132798e-016  0.000000e+000
    endloop
  endfacet
  facet normal  0.000000e+000  -0.000000e+000 -1.000000e+000
    outer loop
      vertex -2.309699e+000 -9.567086e-001  0.000000e+000
      vertex -9.250000e-001  1.132798e-016  0.000000e+000
      vertex -7.483407e-001 -5.437014e-001  0.000000e+000
    endloop
  endfacet
  facet normal  0.000000e+000  -0.000000e+000 -9.999999e-001
    outer loop
      vertex -2.309699e+000 -9.567086e-001  0.000000e+000
      vertex -7.483407e-001 -5.437014e-001  0.000000e+000
      vertex -2.858407e-001 -8.797273e-001  0.000000e+000
    endloop
  endfacet
  facet normal  0.000000e+000  0.000000e+000 -1.000000e+000
    outer loop
      vertex -2.309699e+000 -9.567086e-001  0.000000e+000
      vertex -2.858407e-001 -8.797273e-001  0.000000e+000
      vertex -1.767767e+000 -1.767767e+000  0.000000e+000
    endloop
  endfacet
  facet normal  -0.000000e+000  0.000000e+000 -1.000000e+000
    outer loop
      vertex  2.858407e-001 -8.797273e-001  0.000000e+000
      vertex  9.714159e+000 -8.797273e-001  0.000000e+000
      vertex -4.592425e-016 -2.500000e+000  0.000000e+000
    endloop
  endfacet
  facet normal  0.000000e+000  0.000000e+000 -1.000000e+000
    outer loop
      vertex -4.592425e-016 -2.500000e+000  0.000000e+000
      vertex  9.714159e+000 -8.797273e-001  0.000000e+000
      vertex  1.028584e+001 -8.797273e-001  0.000000e+000
    endloop
  endfacet
  facet normal  0.000000e+000  0.000000e+000 -1.000000e+000
    outer loop
      vertex -4.592425e-016 -2.500000e+000  0.000000e+000
      vertex  1.028584e+001 -8.797273e-001  0.000000e+000
      vertex  1.000000e+001 -2.500000e+000  0.000000e+000
    endloop
  endfacet
  facet normal  0.000000e+000  0.000000e+000 -1.000000e+000
    outer loop
      vertex  1.000000e+001 -2.500000e+000  0.000000e+000
      vertex  1.028584e+001 -8.797273e-001  0.000000e+000
      vertex  1.230970e+001 -9.567086e-001  0.000000e+000
    endloop
  endfacet
  facet normal  0.000000e+000  0.000000e+000 -1.000000e+000
    outer loop
      vertex  1.000000e+001 -2.500000e+000  0.000000e+000
      vertex  1.230970e+001 -9.567086e-001  0.000000e+000
      vertex  1.176777e+001 -1.767767e+000  0.000000e+000
    endloop
  endfacet
  facet normal  0.000000e+000  0.000000e+000 -1.000000e+000
    outer loop
      vertex  2.858407e-001  8.797273e-001  0.000000e+000
      vertex  1.000000e+001  2.500000e+000  0.000000e+000
      vertex  9.714159e+000  8.797273e-001  0.000000e+000
    endloop
  endfacet
  facet normal  0.000000e+000  0.000000e+000 -1.000000e+000
    outer loop
      vertex  9.714159e+000  8.797273e-001  0.000000e+000
      vertex  1.000000e+001  2.500000e+000  0.000000e+000
      vertex  1.095671e+001  2.309699e+000  0.000000e+000
    endloop
  endfacet
  facet normal  0.000000e+000  0.000000e+000 -9.999999e-001
    outer loop
      vertex  9.714159e+000  8.797273e-001  0.000000e+000
      vertex  1.095671e+001  2.309699e+000  0.000000e+000
      vertex  1.028584e+001  8.797273e-001  0.000000e+000
    endloop
  endfacet
  facet normal  0.000000e+000  0.000000e+000 -9.999999e-001
    outer loop
      vertex  1.028584e+001  8.797273e-001  0.000000e+000
      vertex  1.095671e+001  2.309699e+000  0.000000e+000
      vertex  1.176777e+001  1.767767e+000  0.000000e+000
    endloop
  endfacet
  facet normal  0.000000e+000  -0.000000e+000 -1.000000e+000
    outer loop
      vertex  1.028584e+001  8.797273e-001  0.000000e+000
      vertex  1.176777e+001  1.767767e+000  0.000000e+000
      vertex  1.230970e+001  9.567086e-001  0.000000e+000
    endloop
  endfacet
  facet normal  0.000000e+000  0.000000e+000 -1.000000e+000
    outer loop
      vertex -9.567086e-001 -2.309699e+000  0.000000e+000
      vertex -1.767767e+000 -1.767767e+000  0.000000e+000
      vertex -4.592425e-016 -2.500000e+000  0.000000e+000
    endloop
  endfacet
  facet normal  0.000000e+000  0.000000e+000 -9.999999e-001
    outer loop
      vertex -4.592425e-016 -2.500000e+000  0.000000e+000
      vertex -1.767767e+000 -1.767767e+000  0.000000e+000
      vertex -2.858407e-001 -8.797273e-001  0.000000e+000
    endloop
  endfacet
  facet normal  0.000000e+000  0.000000e+000 -1.000000e+000
    outer loop
      vertex -4.592425e-016 -2.500000e+000  0.000000e+000
      vertex -2.858407e-001 -8.797273e-001  0.000000e+000
      vertex  2.858407e-001 -8.797273e-001  0.000000e+000
    endloop
  endfacet
  facet normal  0.000000e+000  0.000000e+000 -1.000000e+000
    outer loop
      vertex -1.767767e+000  1.767767e+000  0.000000e+000
      vertex -9.567086e-001  2.309699e+000  0.000000e+000
      vertex -2.309699e+000  9.567086e-001  0.000000e+000
    endloop
  endfacet
  facet normal  0.000000e+000  0.000000e+000 -1.000000e+000
    outer loop
      vertex -2.309699e+000  9.567086e-001  0.000000e+000
      vertex -9.567086e-001  2.309699e+000  0.000000e+000
      vertex  1.530808e-016  2.500000e+000  0.000000e+000
    endloop
  endfacet
  facet normal  0.000000e+000  0.000000e+000 -1.000000e+000
    outer loop
      vertex -2.309699e+000  9.567086e-001  0.000000e+000
      vertex  1.530808e-016  2.500000e+000  0.000000e+000
      vertex -2.858407e-001  8.797273e-001  0.000000e+000
    endloop
  endfacet
  facet normal  0.000000e+000  0.000000e+000 -1.000000e+000
    outer loop
      vertex -2.858407e-001  8.797273e-001  0.000000e+000
      vertex  1.530808e-016  2.500000e+000  0.000000e+000
      vertex  1.000000e+001  2.500000e+000  0.000000e+000
    endloop
  endfacet
  facet normal  0.000000e+000  0.000000e+000 -1.000000e+000
    outer loop
      vertex -2.858407e-001  8.797273e-001  0.000000e+000
      vertex  1.000000e+001  2.500000e+000  0.000000e+000
      vertex  2.858407e-001  8.797273e-001  0.000000e+000
    endloop
  endfacet
  facet normal  0.000000e+000  0.000000e+000 -1.000000e+000
    outer loop
      vertex -9.250000e-001  1.132798e-016  0.000000e+000
      vertex -2.500000e+000  3.061617e-016  0.000000e+000
      vertex -7.483407e-001  5.437014e-001  0.000000e+000
    endloop
  endfacet
  facet normal  -0.000000e+000  0.000000e+000 -1.000000e+000
    outer loop
      vertex -7.483407e-001  5.437014e-001  0.000000e+000
      vertex -2.500000e+000  3.061617e-016  0.000000e+000
      vertex -2.309699e+000  9.567086e-001  0.000000e+000
    endloop
  endfacet
  facet normal  0.000000e+000  0.000000e+000 -9.999999e-001
    outer loop
      vertex -7.483407e-001  5.437014e-001  0.000000e+000
      vertex -2.309699e+000  9.567086e-001  0.000000e+000
      vertex -2.858407e-001  8.797273e-001  0.000000e+000
    endloop
  endfacet
  facet normal  0.000000e+000  0.000000e+000 -1.000000e+000
    outer loop
      vertex  9.075000e+000  1.132798e-016  0.000000e+000
      vertex  7.483407e-001  5.437014e-001  0.000000e+000
      vertex  9.251659e+000  5.437014e-001  0.000000e+000
    endloop
  endfacet
  facet normal  0.000000e+000  0.000000e+000 -1.000000e+000
    outer loop
      vertex  9.251659e+000  5.437014e-001  0.000000e+000
      vertex  7.483407e-001  5.437014e-001  0.000000e+000
      vertex  2.858407e-001  8.797273e-001  0.000000e+000
    endloop
  endfacet
  facet normal  0.000000e+000  0.000000e+000 -1.000000e+000
    outer loop
      vertex  9.251659e+000  5.437014e-001  0.000000e+000
      vertex  2.858407e-001  8.797273e-001  0.000000e+000
      vertex  9.714159e+000  8.797273e-001  0.000000e+000
    endloop
  endfacet
  facet normal  -0.000000e+000  0.000000e+000 -1.000000e+000
    outer loop
      vertex  7.483407e-001  5.437014e-001  0.000000e+000
      vertex  9.075000e+000  1.132798e-016  0.000000e+000
      vertex  9.250000e-001  0.000000e+000  0.000000e+000
    endloop
  endfacet
  facet normal  0.000000e+000  0.000000e+000 -1.000000e+000
    outer loop
      vertex  9.250000e-001  0.000000e+000  0.000000e+000
      vertex  9.075000e+000  1.132798e-016  0.000000e+000
      vertex  9.251659e+000 -5.437014e-001  0.000000e+000
    endloop
  endfacet
  facet normal  0.000000e+000  0.000000e+000 -1.000000e+000
    outer loop
      vertex  9.250000e-001  0.000000e+000  0.000000e+000
      vertex  9.251659e+000 -5.437014e-001  0.000000e+000
      vertex  7.483407e-001 -5.437014e-001  0.000000e+000
    endloop
  endfacet
  facet normal  0.000000e+000  0.000000e+000 -1.000000e+000
    outer loop
      vertex  7.483407e-001 -5.437014e-001  0.000000e+000
      vertex  9.251659e+000 -5.437014e-001  0.000000e+000
      vertex  9.714159e+000 -8.797273e-001  0.000000e+000
    endloop
  endfacet
  facet normal  0.000000e+000  0.000000e+000 -1.000000e+000
    outer loop
      vertex  7.483407e-001 -5.437014e-001  0.000000e+000
      vertex  9.714159e+000 -8.797273e-001  0.000000e+000
      vertex  2.858407e-001 -8.797273e-001  0.000000e+000
    endloop
  endfacet
  facet normal  0.000000e+000  0.000000e+000 -1.000000e+000
    outer loop
      vertex  1.092500e+001  0.000000e+000  0.000000e+000
      vertex  1.074834e+001  5.437014e-001  0.000000e+000
      vertex  1.250000e+001 -6.123234e-016  0.000000e+000
    endloop
  endfacet
  facet normal  0.000000e+000  0.000000e+000 -1.000000e+000
    outer loop
      vertex  1.250000e+001 -6.123234e-016  0.000000e+000
      vertex  1.074834e+001  5.437014e-001  0.000000e+000
      vertex  1.028584e+001  8.797273e-001  0.000000e+000
    endloop
  endfacet
  facet normal  0.000000e+000  0.000000e+000 -9.999999e-001
    outer loop
      vertex  1.250000e+001 -6.123234e-016  0.000000e+000
      vertex  1.028584e+001  8.797273e-001  0.000000e+000
      vertex  1.230970e+001  9.567086e-001  0.000000e+000
    endloop
  endfacet
  facet normal  0.000000e+000  -0.000000e+000 -9.999999e-001
    outer loop
      vertex  1.028584e+001 -8.797273e-001  0.000000e+000
      vertex  1.074834e+001 -5.437014e-001  0.000000e+000
      vertex  1.230970e+001 -9.567086e-001  0.000000e+000
    endloop
  endfacet
  facet normal  0.000000e+000  0.000000e+000 -1.000000e+000
    outer loop
      vertex  1.230970e+001 -9.567086e-001  0.000000e+000
      vertex  1.074834e+001 -5.437014e-001  0.000000e+000
      vertex  1.092500e+001  0.000000e+000  0.000000e+000
    endloop
  endfacet
  facet normal  0.000000e+000  0.000000e+000 -9.999999e-001
    outer loop
      vertex  1.230970e+001 -9.567086e-001  0.000000e+000
      vertex  1.092500e+001  0.000000e+000  0.000000e+000
      vertex  1.250000e+001 -6.123234e-016  0.000000e+000
    endloop
  endfacet
  facet normal  0.000000e+000  1.000000e+000  0.000000e+000
    outer loop
      vertex  1.530808e-016  2.500000e+000  1.500000e+000
      vertex  1.000000e+001  2.500000e+000  1.500000e+000
      vertex  1.530808e-016  2.500000e+000  0.000000e+000
    endloop
  endfacet
  facet normal  0.000000e+000  1.000000e+000  0.000000e+000
    outer loop
      vertex  1.530808e-016  2.500000e+000  0.000000e+000
      vertex  1.000000e+001  2.500000e+000  1.500000e+000
      vertex  1.000000e+001  2.500000e+000  0.000000e+000
    endloop
  endfacet
  facet normal  1.950903e-001  9.807854e-001  0.000000e+000
    outer loop
      vertex  1.000000e+001  2.500000e+000  0.000000e+000
      vertex  1.000000e+001  2.500000e+000  1.500000e+000
      vertex  1.095671e+001  2.309699e+000  0.000000e+000
    endloop
  endfacet
  facet normal  1.950903e-001  9.807854e-001  -0.000000e+000
    outer loop
      vertex  1.095671e+001  2.309699e+000  0.000000e+000
      vertex  1.000000e+001  2.500000e+000  1.500000e+000
      vertex  1.095671e+001  2.309699e+000  1.500000e+000
    endloop
  endfacet
  facet normal  5.555704e-001  8.314695e-001  0.000000e+000
    outer loop
      vertex  1.095671e+001  2.309699e+000  0.000000e+000
      vertex  1.095671e+001  2.309699e+000  1.500000e+000
      vertex  1.176777e+001  1.767767e+000  0.000000e+000
    endloop
  endfacet
  facet normal  5.555704e-001  8.314695e-001  -0.000000e+000
    outer loop
      vertex  1.176777e+001  1.767767e+000  0.000000e+000
      vertex  1.095671e+001  2.309699e+000  1.500000e+000
      vertex  1.176777e+001  1.767767e+000  1.500000e+000
    endloop
  endfacet
  facet normal  8.314695e-001  5.555704e-001  0.000000e+000
    outer loop
      vertex  1.176777e+001  1.767767e+000  0.000000e+000
      vertex  1.176777e+001  1.767767e+000  1.500000e+000
      vertex  1.230970e+001  9.567086e-001  0.000000e+000
    endloop
  endfacet
  facet normal  8.314695e-001  5.555704e-001  -0.000000e+000
    outer loop
      vertex  1.230970e+001  9.567086e-001  0.000000e+000
      vertex  1.176777e+001  1.767767e+000  1.500000e+000
      vertex  1.230970e+001  9.567086e-001  1.500000e+000
    endloop
  endfacet
  facet normal  9.807853e-001  1.950901e-001  0.000000e+000
    outer loop
      vertex  1.230970e+001  9.567086e-001  0.000000e+000
      vertex  1.230970e+001  9.567086e-001  1.500000e+000
      vertex  1.250000e+001 -6.123234e-016  0.000000e+000
    endloop
  endfacet
  facet normal  9.807853e-001  1.950901e-001  -0.000000e+000
    outer loop
      vertex  1.250000e+001 -6.123234e-016  0.000000e+000
      vertex  1.230970e+001  9.567086e-001  1.500000e+000
      vertex  1.250000e+001 -6.123234e-016  1.500000e+000
    endloop
  endfacet
  facet normal  9.807853e-001 -1.950901e-001  0.000000e+000
    outer loop
      vertex  1.250000e+001 -6.123234e-016  0.000000e+000
      vertex  1.250000e+001 -6.123234e-016  1.500000e+000
      vertex  1.230970e+001 -9.567086e-001  0.000000e+000
    endloop
  endfacet
  facet normal  9.807853e-001 -1.950901e-001  0.000000e+000
    outer loop
      vertex  1.230970e+001 -9.567086e-001  0.000000e+000
      vertex  1.250000e+001 -6.123234e-016  1.500000e+000
      vertex  1.230970e+001 -9.567086e-001  1.500000e+000
    endloop
  endfacet
  facet normal  8.314695e-001 -5.555704e-001  0.000000e+000
    outer loop
      vertex  1.230970e+001 -9.567086e-001  0.000000e+000
      vertex  1.230970e+001 -9.567086e-001  1.500000e+000
      vertex  1.176777e+001 -1.767767e+000  0.000000e+000
    endloop
  endfacet
  facet normal  8.314695e-001 -5.555704e-001  0.000000e+000
    outer loop
      vertex  1.176777e+001 -1.767767e+000  0.000000e+000
      vertex  1.230970e+001 -9.567086e-001  1.500000e+000
      vertex  1.176777e+001 -1.767767e+000  1.500000e+000
    endloop
  endfacet
  facet normal  5.555704e-001 -8.314695e-001  0.000000e+000
    outer loop
      vertex  1.176777e+001 -1.767767e+000  0.000000e+000
      vertex  1.176777e+001 -1.767767e+000  1.500000e+000
      vertex  1.095671e+001 -2.309699e+000  0.000000e+000
    endloop
  endfacet
  facet normal  5.555704e-001 -8.314695e-001  0.000000e+000
    outer loop
      vertex  1.095671e+001 -2.309699e+000  0.000000e+000
      vertex  1.176777e+001 -1.767767e+000  1.500000e+000
      vertex  1.095671e+001 -2.309699e+000  1.500000e+000
    endloop
  endfacet
  facet normal  1.950903e-001 -9.807854e-001  0.000000e+000
    outer loop
      vertex  1.095671e+001 -2.309699e+000  0.000000e+000
      vertex  1.095671e+001 -2.309699e+000  1.500000e+000
      vertex  1.000000e+001 -2.500000e+000  0.000000e+000
    endloop
  endfacet
  facet normal  1.950903e-001 -9.807854e-001  0.000000e+000
    outer loop
      vertex  1.000000e+001 -2.500000e+000  0.000000e+000
      vertex  1.095671e+001 -2.309699e+000  1.500000e+000
      vertex  1.000000e+001 -2.500000e+000  1.500000e+000
    endloop
  endfacet
  facet normal  0.000000e+000 -1.000000e+000  0.000000e+000
    outer loop
      vertex  1.000000e+001 -2.500000e+000  1.500000e+000
      vertex -4.592425e-016 -2.500000e+000  1.500000e+000
      vertex  1.000000e+001 -2.500000e+000  0.000000e+000
    endloop
  endfacet
  facet normal  0.000000e+000 -1.000000e+000  0.000000e+000
    outer loop
      vertex  1.000000e+001 -2.500000e+000  0.000000e+000
      vertex -4.592425e-016 -2.500000e+000  1.500000e+000
      vertex -4.592425e-016 -2.500000e+000  0.000000e+000
    endloop
  endfacet
  facet normal -1.950903e-001 -9.807853e-001  -0.000000e+000
    outer loop
      vertex -4.592425e-016 -2.500000e+000  0.000000e+000
      vertex -4.592425e-016 -2.500000e+000  1.500000e+000
      vertex -9.567086e-001 -2.309699e+000  0.000000e+000
    endloop
  endfacet
  facet normal -1.950903e-001 -9.807853e-001  0.000000e+000
    outer loop
      vertex -9.567086e-001 -2.309699e+000  0.000000e+000
      vertex -4.592425e-016 -2.500000e+000  1.500000e+000
      vertex -9.567086e-001 -2.309699e+000  1.500000e+000
    endloop
  endfacet
  facet normal -5.555702e-001 -8.314695e-001  -0.000000e+000
    outer loop
      vertex -9.567086e-001 -2.309699e+000  0.000000e+000
      vertex -9.567086e-001 -2.309699e+000  1.500000e+000
      vertex -1.767767e+000 -1.767767e+000  0.000000e+000
    endloop
  endfacet
  facet normal -5.555702e-001 -8.314695e-001  0.000000e+000
    outer loop
      vertex -1.767767e+000 -1.767767e+000  0.000000e+000
      vertex -9.567086e-001 -2.309699e+000  1.500000e+000
      vertex -1.767767e+000 -1.767767e+000  1.500000e+000
    endloop
  endfacet
  facet normal -8.314695e-001 -5.555702e-001  -0.000000e+000
    outer loop
      vertex -1.767767e+000 -1.767767e+000  0.000000e+000
      vertex -1.767767e+000 -1.767767e+000  1.500000e+000
      vertex -2.309699e+000 -9.567086e-001  0.000000e+000
    endloop
  endfacet
  facet normal -8.314695e-001 -5.555702e-001  0.000000e+000
    outer loop
      vertex -2.309699e+000 -9.567086e-001  0.000000e+000
      vertex -1.767767e+000 -1.767767e+000  1.500000e+000
      vertex -2.309699e+000 -9.567086e-001  1.500000e+000
    endloop
  endfacet
  facet normal -9.807853e-001 -1.950903e-001  -0.000000e+000
    outer loop
      vertex -2.309699e+000 -9.567086e-001  0.000000e+000
      vertex -2.309699e+000 -9.567086e-001  1.500000e+000
      vertex -2.500000e+000  3.061617e-016  0.000000e+000
    endloop
  endfacet
  facet normal -9.807853e-001 -1.950903e-001  0.000000e+000
    outer loop
      vertex -2.500000e+000  3.061617e-016  0.000000e+000
      vertex -2.309699e+000 -9.567086e-001  1.500000e+000
      vertex -2.500000e+000  3.061617e-016  1.500000e+000
    endloop
  endfacet
  facet normal -9.807853e-001  1.950903e-001  0.000000e+000
    outer loop
      vertex -2.500000e+000  3.061617e-016  0.000000e+000
      vertex -2.500000e+000  3.061617e-016  1.500000e+000
      vertex -2.309699e+000  9.567086e-001  0.000000e+000
    endloop
  endfacet
  facet normal -9.807853e-001  1.950903e-001  0.000000e+000
    outer loop
      vertex -2.309699e+000  9.567086e-001  0.000000e+000
      vertex -2.500000e+000  3.061617e-016  1.500000e+000
      vertex -2.309699e+000  9.567086e-001  1.500000e+000
    endloop
  endfacet
  facet normal -8.314695e-001  5.555702e-001  0.000000e+000
    outer loop
      vertex -2.309699e+000  9.567086e-001  0.000000e+000
      vertex -2.309699e+000  9.567086e-001  1.500000e+000
      vertex -1.767767e+000  1.767767e+000  0.000000e+000
    endloop
  endfacet
  facet normal -8.314695e-001  5.555702e-001  0.000000e+000
    outer loop
      vertex -1.767767e+000  1.767767e+000  0.000000e+000
      vertex -2.309699e+000  9.567086e-001  1.500000e+000
      vertex -1.767767e+000  1.767767e+000  1.500000e+000
    endloop
  endfacet
  facet normal -5.555702e-001  8.314695e-001  0.000000e+000
    outer loop
      vertex -1.767767e+000  1.767767e+000  0.000000e+000
      vertex -1.767767e+000  1.767767e+000  1.500000e+000
      vertex -9.567086e-001  2.309699e+000  0.000000e+000
    endloop
  endfacet
  facet normal -5.555702e-001  8.314695e-001  0.000000e+000
    outer loop
      vertex -9.567086e-001  2.309699e+000  0.000000e+000
      vertex -1.767767e+000  1.767767e+000  1.500000e+000
      vertex -9.567086e-001  2.309699e+000  1.500000e+000
    endloop
  endfacet
  facet normal -1.950903e-001  9.807853e-001  0.000000e+000
    outer loop
      vertex -9.567086e-001  2.309699e+000  0.000000e+000
      vertex -9.567086e-001  2.309699e+000  1.500000e+000
      vertex  1.530808e-016  2.500000e+000  0.000000e+000
    endloop
  endfacet
  facet normal -1.950903e-001  9.807853e-001  0.000000e+000
    outer loop
      vertex  1.530808e-016  2.500000e+000  0.000000e+000
      vertex -9.567086e-001  2.309699e+000  1.500000e+000
      vertex  1.530808e-016  2.500000e+000  1.500000e+000
    endloop
  endfacet
endsolid CATIA STL
